<svg width="72" height="24" viewBox="0 0 72 24" fill="none" xmlns="http://www.w3.org/2000/svg">
<path fill-rule="evenodd" clip-rule="evenodd" d="M4 15H6C8.20914 15 10 13.2091 10 11V9C10 11.2091 8.20914 13 6 13H4V15ZM0 17V19H6C8.20914 19 10 17.2091 10 15V13C10 15.2091 8.20914 17 6 17H2V13H0V17Z" fill="#99C5FF"/>
<path fill-rule="evenodd" clip-rule="evenodd" d="M0 5V7H6C8.20914 7 10 8.79086 10 11V9C10 6.79086 8.20914 5 6 5H0ZM0 9V11H6C8.20914 11 10 12.7909 10 15V13C10 10.7909 8.20914 9 6 9H0Z" fill="#FCFEFF"/>
<path d="M14.98 17.92H16.44V6.11999H14.98V5.04H21.9C23.2733 5.04 24.3066 5.34666 25 5.96C25.6933 6.57333 26.04 7.36666 26.04 8.33999C26.04 8.83333 25.96 9.27333 25.8 9.66C25.64 10.0333 25.4266 10.3533 25.16 10.62C24.9066 10.8867 24.6133 11.1067 24.28 11.28C23.9466 11.4533 23.6 11.5733 23.24 11.64V11.74C23.6133 11.78 23.9933 11.8733 24.38 12.02C24.78 12.1667 25.14 12.38 25.46 12.66C25.7933 12.94 26.06 13.2867 26.26 13.7C26.4733 14.1 26.58 14.5733 26.58 15.12C26.58 16.3333 26.2133 17.2867 25.48 17.98C24.7466 18.66 23.7266 19 22.42 19H14.98V17.92ZM18.82 17.84H21.74C22.5 17.84 23.0866 17.6333 23.5 17.22C23.9133 16.7933 24.12 16.24 24.12 15.56V14.66C24.12 13.98 23.9133 13.4333 23.5 13.02C23.0866 12.5933 22.5 12.38 21.74 12.38H18.82V17.84ZM18.82 11.2H21.4C22.12 11.2 22.66 11.0133 23.02 10.64C23.3933 10.2667 23.58 9.76666 23.58 9.13999V8.26C23.58 7.63333 23.3933 7.13333 23.02 6.75999C22.66 6.38666 22.12 6.19999 21.4 6.19999H18.82V11.2Z" fill="#FCFEFF"/>
<path d="M31.0514 6.65999C30.6247 6.65999 30.2914 6.53999 30.0514 6.29999C29.8114 6.04666 29.6914 5.72666 29.6914 5.33999V5.22C29.6914 4.83333 29.8114 4.51999 30.0514 4.27999C30.2914 4.02666 30.6247 3.89999 31.0514 3.89999C31.4781 3.89999 31.8114 4.02666 32.0514 4.27999C32.2914 4.51999 32.4114 4.83333 32.4114 5.22V5.33999C32.4114 5.72666 32.2914 6.04666 32.0514 6.29999C31.8114 6.53999 31.4781 6.65999 31.0514 6.65999ZM28.5714 17.92H29.9314V10.2L28.5714 9.93999V9.05999L32.1714 8.35999V17.92H33.5314V19H28.5714V17.92Z" fill="#FCFEFF"/>
<path d="M35.1362 17.92H36.5962V6.11999H35.1362V5.04H40.4362V6.11999H38.9762V17.82H43.5362V15.22H45.3562V19H35.1362V17.92Z" fill="#FCFEFF"/>
<path d="M49.6451 6.65999C49.2185 6.65999 48.8851 6.53999 48.6451 6.29999C48.4051 6.04666 48.2851 5.72666 48.2851 5.33999V5.22C48.2851 4.83333 48.4051 4.51999 48.6451 4.27999C48.8851 4.02666 49.2185 3.89999 49.6451 3.89999C50.0718 3.89999 50.4051 4.02666 50.6451 4.27999C50.8851 4.51999 51.0051 4.83333 51.0051 5.22V5.33999C51.0051 5.72666 50.8851 6.04666 50.6451 6.29999C50.4051 6.53999 50.0718 6.65999 49.6451 6.65999ZM47.1651 17.92H48.5251V10.2L47.1651 9.93999V9.05999L50.7651 8.35999V17.92H52.1251V19H47.1651V17.92Z" fill="#FCFEFF"/>
<path d="M57.89 19.24C57.21 19.24 56.6566 19.1067 56.23 18.84C55.8033 18.5733 55.5233 18.28 55.39 17.96H55.31V19H53.79V15.9H55.31V16.26C55.31 16.82 55.4833 17.26 55.83 17.58C56.1767 17.9 56.7366 18.06 57.51 18.06C58.95 18.06 59.67 17.5533 59.67 16.54C59.67 15.7533 59.15 15.2333 58.11 14.98L57.03 14.72C55.9633 14.4667 55.17 14.08 54.65 13.56C54.13 13.04 53.87 12.3267 53.87 11.42C53.87 10.4467 54.1966 9.69333 54.85 9.16C55.5033 8.62666 56.37 8.35999 57.45 8.35999C58.1166 8.35999 58.65 8.47333 59.05 8.69999C59.45 8.92666 59.71 9.2 59.83 9.51999H59.91V8.59999H61.43V11.7H59.91V11.12C59.91 10.0667 59.1966 9.54 57.77 9.54C57.1566 9.54 56.6833 9.65999 56.35 9.89999C56.03 10.1267 55.87 10.4733 55.87 10.94C55.87 11.7667 56.4033 12.3133 57.47 12.58L58.49 12.82C59.57 13.06 60.3766 13.4267 60.91 13.92C61.4433 14.4 61.71 15.1133 61.71 16.06C61.71 17.02 61.3633 17.7933 60.67 18.38C59.99 18.9533 59.0633 19.24 57.89 19.24Z" fill="#FCFEFF"/>
<path d="M66.6347 19.16C65.8747 19.16 65.3413 19 65.0347 18.68C64.728 18.36 64.5747 17.8533 64.5747 17.16V9.76H63.2147V8.59999H63.5547C64.048 8.59999 64.388 8.51333 64.5747 8.33999C64.7613 8.16666 64.9147 7.91333 65.0347 7.57999L65.6547 5.81999H66.8147V8.59999H69.3147V9.76H66.8147V17.86H69.3147V18.74C69.088 18.8467 68.7213 18.94 68.2147 19.02C67.7213 19.1133 67.1947 19.16 66.6347 19.16Z" fill="#FCFEFF"/>
</svg>
