<svg width="72" height="24" viewBox="0 0 72 24" fill="none" xmlns="http://www.w3.org/2000/svg">
<path fill-rule="evenodd" clip-rule="evenodd" d="M4 15H6C8.20914 15 10 13.2091 10 11V9C10 11.2091 8.20914 13 6 13H4V15ZM0 17V19H6C8.20914 19 10 17.2091 10 15V13C10 15.2091 8.20914 17 6 17H2V13H0V17Z" fill="#99C5FF"/>
<path fill-rule="evenodd" clip-rule="evenodd" d="M0 5V7H6C8.20914 7 10 8.79086 10 11V9C10 6.79086 8.20914 5 6 5H0ZM0 9V11H6C8.20914 11 10 12.7909 10 15V13C10 10.7909 8.20914 9 6 9H0Z" fill="#FCFEFF"/>
<path d="M14.98 17.92H16.44V6.12H14.98V5.04H21.9C23.2733 5.04 24.3067 5.34667 25 5.96C25.6933 6.57333 26.04 7.36667 26.04 8.34C26.04 8.83333 25.96 9.27333 25.8 9.66C25.64 10.0333 25.4267 10.3533 25.16 10.62C24.9067 10.8867 24.6133 11.1067 24.28 11.28C23.9467 11.4533 23.6 11.5733 23.24 11.64V11.74C23.6133 11.78 23.9933 11.8733 24.38 12.02C24.78 12.1667 25.14 12.38 25.46 12.66C25.7933 12.94 26.06 13.2867 26.26 13.7C26.4733 14.1 26.58 14.5733 26.58 15.12C26.58 16.3333 26.2133 17.2867 25.48 17.98C24.7467 18.66 23.7267 19 22.42 19H14.98V17.92ZM18.82 17.84H21.74C22.5 17.84 23.0867 17.6333 23.5 17.22C23.9133 16.7933 24.12 16.24 24.12 15.56V14.66C24.12 13.98 23.9133 13.4333 23.5 13.02C23.0867 12.5933 22.5 12.38 21.74 12.38H18.82V17.84ZM18.82 11.2H21.4C22.12 11.2 22.66 11.0133 23.02 10.64C23.3933 10.2667 23.58 9.76667 23.58 9.14V8.26C23.58 7.63333 23.3933 7.13333 23.02 6.76C22.66 6.38667 22.12 6.2 21.4 6.2H18.82V11.2ZM31.0514 6.66C30.6247 6.66 30.2914 6.54 30.0514 6.3C29.8114 6.04667 29.6914 5.72667 29.6914 5.34V5.22C29.6914 4.83333 29.8114 4.52 30.0514 4.28C30.2914 4.02667 30.6247 3.9 31.0514 3.9C31.4781 3.9 31.8114 4.02667 32.0514 4.28C32.2914 4.52 32.4114 4.83333 32.4114 5.22V5.34C32.4114 5.72667 32.2914 6.04667 32.0514 6.3C31.8114 6.54 31.4781 6.66 31.0514 6.66ZM28.5714 17.92H29.9314V10.2L28.5714 9.94V9.06L32.1714 8.36V17.92H33.5314V19H28.5714V17.92ZM34.7763 17.92H36.1363V5.64L34.7763 5.38V4.5L38.3763 3.8V17.92H39.7363V19H34.7763V17.92ZM43.7077 6.66C43.281 6.66 42.9477 6.54 42.7077 6.3C42.4677 6.04667 42.3477 5.72667 42.3477 5.34V5.22C42.3477 4.83333 42.4677 4.52 42.7077 4.28C42.9477 4.02667 43.281 3.9 43.7077 3.9C44.1343 3.9 44.4677 4.02667 44.7077 4.28C44.9477 4.52 45.0677 4.83333 45.0677 5.22V5.34C45.0677 5.72667 44.9477 6.04667 44.7077 6.3C44.4677 6.54 44.1343 6.66 43.7077 6.66ZM41.2277 17.92H42.5877V10.2L41.2277 9.94V9.06L44.8277 8.36V17.92H46.1877V19H41.2277V17.92ZM51.9525 19.24C51.2725 19.24 50.7192 19.1067 50.2925 18.84C49.8658 18.5733 49.5858 18.28 49.4525 17.96H49.3725V19H47.8525V15.9H49.3725V16.26C49.3725 16.82 49.5458 17.26 49.8925 17.58C50.2392 17.9 50.7992 18.06 51.5725 18.06C53.0125 18.06 53.7325 17.5533 53.7325 16.54C53.7325 15.7533 53.2125 15.2333 52.1725 14.98L51.0925 14.72C50.0258 14.4667 49.2325 14.08 48.7125 13.56C48.1925 13.04 47.9325 12.3267 47.9325 11.42C47.9325 10.4467 48.2592 9.69333 48.9125 9.16C49.5658 8.62667 50.4325 8.36 51.5125 8.36C52.1792 8.36 52.7125 8.47333 53.1125 8.7C53.5125 8.92667 53.7725 9.2 53.8925 9.52H53.9725V8.6H55.4925V11.7H53.9725V11.12C53.9725 10.0667 53.2592 9.54 51.8325 9.54C51.2192 9.54 50.7458 9.66 50.4125 9.9C50.0925 10.1267 49.9325 10.4733 49.9325 10.94C49.9325 11.7667 50.4658 12.3133 51.5325 12.58L52.5525 12.82C53.6325 13.06 54.4392 13.4267 54.9725 13.92C55.5058 14.4 55.7725 15.1133 55.7725 16.06C55.7725 17.02 55.4258 17.7933 54.7325 18.38C54.0525 18.9533 53.1258 19.24 51.9525 19.24ZM60.6972 19.16C59.9372 19.16 59.4039 19 59.0972 18.68C58.7905 18.36 58.6372 17.8533 58.6372 17.16V9.76H57.2772V8.6H57.6172C58.1105 8.6 58.4505 8.51333 58.6372 8.34C58.8239 8.16667 58.9772 7.91333 59.0972 7.58L59.7172 5.82H60.8772V8.6H63.3772V9.76H60.8772V17.86H63.3772V18.74C63.1505 18.8467 62.7839 18.94 62.2772 19.02C61.7839 19.1133 61.2572 19.16 60.6972 19.16Z" fill="#FCFEFF"/>
</svg>
