<svg width="18" height="18" viewBox="0 0 18 18" fill="none" xmlns="http://www.w3.org/2000/svg">
<path d="M14.5725 9.735C14.6025 9.495 14.625 9.255 14.625 9C14.625 8.745 14.6025 8.505 14.5725 8.265L16.155 7.0275C16.2975 6.915 16.335 6.7125 16.245 6.5475L14.745 3.9525C14.6775 3.8325 14.55 3.765 14.415 3.765C14.37 3.765 14.325 3.7725 14.2875 3.7875L12.42 4.5375C12.03 4.2375 11.61 3.99 11.1525 3.8025L10.8675 1.815C10.845 1.635 10.6875 1.5 10.5 1.5H7.5C7.3125 1.5 7.155 1.635 7.1325 1.815L6.8475 3.8025C6.39 3.99 5.97 4.245 5.58 4.5375L3.7125 3.7875C3.6675 3.7725 3.6225 3.765 3.5775 3.765C3.45 3.765 3.3225 3.8325 3.255 3.9525L1.755 6.5475C1.6575 6.7125 1.7025 6.915 1.845 7.0275L3.4275 8.265C3.3975 8.505 3.375 8.7525 3.375 9C3.375 9.2475 3.3975 9.495 3.4275 9.735L1.845 10.9725C1.7025 11.085 1.665 11.2875 1.755 11.4525L3.255 14.0475C3.3225 14.1675 3.45 14.235 3.585 14.235C3.63 14.235 3.675 14.2275 3.7125 14.2125L5.58 13.4625C5.97 13.7625 6.39 14.01 6.8475 14.1975L7.1325 16.185C7.155 16.365 7.3125 16.5 7.5 16.5H10.5C10.6875 16.5 10.845 16.365 10.8675 16.185L11.1525 14.1975C11.61 14.01 12.03 13.755 12.42 13.4625L14.2875 14.2125C14.3325 14.2275 14.3775 14.235 14.4225 14.235C14.55 14.235 14.6775 14.1675 14.745 14.0475L16.245 11.4525C16.335 11.2875 16.2975 11.085 16.155 10.9725L14.5725 9.735ZM13.0875 8.4525C13.1175 8.685 13.125 8.8425 13.125 9C13.125 9.1575 13.11 9.3225 13.0875 9.5475L12.9825 10.395L13.65 10.92L14.46 11.55L13.935 12.4575L12.9825 12.075L12.2025 11.76L11.5275 12.27C11.205 12.51 10.8975 12.69 10.59 12.8175L9.795 13.14L9.675 13.9875L9.525 15H8.475L8.3325 13.9875L8.2125 13.14L7.4175 12.8175C7.095 12.6825 6.795 12.51 6.495 12.285L5.8125 11.76L5.0175 12.0825L4.065 12.465L3.54 11.5575L4.35 10.9275L5.0175 10.4025L4.9125 9.555C4.89 9.3225 4.875 9.15 4.875 9C4.875 8.85 4.89 8.6775 4.9125 8.4525L5.0175 7.605L4.35 7.08L3.54 6.45L4.065 5.5425L5.0175 5.925L5.7975 6.24L6.4725 5.73C6.795 5.49 7.1025 5.31 7.41 5.1825L8.205 4.86L8.325 4.0125L8.475 3H9.5175L9.66 4.0125L9.78 4.86L10.575 5.1825C10.8975 5.3175 11.1975 5.49 11.4975 5.715L12.18 6.24L12.975 5.9175L13.9275 5.535L14.4525 6.4425L13.65 7.08L12.9825 7.605L13.0875 8.4525ZM9 6C7.3425 6 6 7.3425 6 9C6 10.6575 7.3425 12 9 12C10.6575 12 12 10.6575 12 9C12 7.3425 10.6575 6 9 6ZM9 10.5C8.175 10.5 7.5 9.825 7.5 9C7.5 8.175 8.175 7.5 9 7.5C9.825 7.5 10.5 8.175 10.5 9C10.5 9.825 9.825 10.5 9 10.5Z" fill="#FCFEFF"/>
</svg>
